<?xml version="1.0" encoding="UTF-8" standalone="no"?>
<svg
   width="128"
   height="128"
   version="1.1"
   id="svg3125"
   sodipodi:docname="visual-regexp.svg"
   inkscape:version="1.1.2 (0a00cf5339, 2022-02-04)"
   inkscape:export-filename="/home/braulio/tmp/visual-regexp.png"
   inkscape:export-xdpi="96"
   inkscape:export-ydpi="96"
   xmlns:inkscape="http://www.inkscape.org/namespaces/inkscape"
   xmlns:sodipodi="http://sodipodi.sourceforge.net/DTD/sodipodi-0.dtd"
   xmlns="http://www.w3.org/2000/svg"
   xmlns:svg="http://www.w3.org/2000/svg"
   xmlns:rdf="http://www.w3.org/1999/02/22-rdf-syntax-ns#"
   xmlns:cc="http://creativecommons.org/ns#"
   xmlns:dc="http://purl.org/dc/elements/1.1/">
  <title
     id="title24">Visual Regexp</title>
  <defs
     id="defs3129" />
  <sodipodi:namedview
     id="namedview3127"
     pagecolor="#ffffff"
     bordercolor="#666666"
     borderopacity="1.0"
     inkscape:pageshadow="2"
     inkscape:pageopacity="0.0"
     inkscape:pagecheckerboard="0"
     showgrid="false"
     inkscape:zoom="4.125"
     inkscape:cx="-24.969697"
     inkscape:cy="60.121212"
     inkscape:current-layer="g115529"
     inkscape:object-nodes="false"
     inkscape:snap-nodes="false"
     inkscape:snap-others="false" />
  <g
     id="g115529">
    <rect
       style="fill:#e6e6e6;fill-opacity:1;stroke:none;stroke-width:0.450514;stroke-opacity:1;-inkscape-stroke:none;stop-color:#000000"
       id="rect108726"
       width="128"
       height="60"
       x="0"
       y="34"
       rx="5"
       ry="5.4545455" />
    <g
       id="g108702"
       transform="matrix(0.34921822,0,0,0.35198979,73.115922,46.921619)">
      <path
         style="fill:#0602b1;fill-opacity:1;stroke:none;stroke-width:0.181419;stroke-opacity:1;-inkscape-stroke:none;stop-color:#000000"
         d="m 114.54653,60.970586 15.81974,-0.372576 c 6.22338,-0.146569 15.82445,-1.585698 19.31431,1.70566 2.02432,1.909186 3.54382,6.944838 3.54382,9.55043 -0.83285,6.822178 -3.09514,17.409773 -7.07951,21.202774 -3.14646,2.664079 -5.50926,3.019251 -5.92289,3.326424 -0.68064,0.505472 -1.78299,1.48736 -10.87023,1.45832 l -10.24232,-0.03273 c 0.0141,5.561622 -3.28748,10.530492 -3.37474,15.697662 0,2.45879 0.11096,2.91026 -5.12546,3.16344 l -8.20004,0.39646 c 0.6745,-11.42116 11.99379,-49.726431 12.13732,-56.095862 z m 18.41331,26.592536 c 4.23664,-3.585675 6.05625,-9.738169 6.58417,-14.375142 0,-5.780058 -1.82635,-4.393598 -9.84652,-5.45763 -2.51518,-0.333686 -2.95957,1.695092 -3.74648,5.214131 -1.30195,2.838178 -3.81224,12.326265 -3.36718,13.135341 0.91948,1.736209 8.07839,1.419373 10.37601,1.4833 z"
         id="path93460"
         inkscape:label="P"
         sodipodi:nodetypes="cssccssccsccccsccc" />
      <path
         style="fill:#0602b1;fill-opacity:1;stroke:none;stroke-width:0.181419;stroke-opacity:1;-inkscape-stroke:none;stop-color:#000000"
         d="m 72.227211,100.59982 c -3.142457,5.25911 -8.009224,9.30634 -10.647638,14.71583 0,0.71846 -5.416199,0.9502 -8.768645,0.9502 -4.087677,0 -5.796473,-1.48752 -4.064168,-2.55815 2.694308,-5.04503 4.777238,-8.62797 8.986524,-12.36709 0.634297,-0.37712 3.767797,-3.744945 4.641994,-4.950416 0.874196,-1.205471 5.190006,-6.929889 6.321377,-8.337345 5.020813,-4.441714 -5.636221,-17.89905 -5.616057,-25.725963 0.301706,-0.786232 4.157745,-1.010691 6.415446,-1.010691 4.096304,0 6.018345,0.561196 6.988883,3.501956 2.099192,2.992813 1.539822,5.97009 3.818041,7.804645 1.442106,0.457706 3.086812,-0.796219 3.086812,-1.848273 1.441417,-3.932136 4.726671,-4.586806 6.452591,-8.161222 0,-1.154482 2.160634,-1.846133 6.668331,-2.375925 4.120208,-0.48425 8.269978,1.792542 5.864868,3.477144 -3.436462,7.620899 -14.200013,17.103494 -17.407927,22.694439 -0.006,0.565685 0.296526,3.12371 0.859888,4.203908 2.041692,8.06867 6.216312,16.090393 7.898537,21.083643 l 1.230298,3.508 -8.072212,1.246 c -7.866235,1.52012 -4.919417,-3.60127 -6.715142,-6.99181 -0.418007,0 -3.098821,-8.19389 -3.098821,-8.86546 0,-0.743866 -1.310781,-1.397225 -2.646795,-1.901514"
         id="path93421"
         inkscape:label="X"
         sodipodi:nodetypes="ccsccsccsccccscccccccsc" />
      <path
         style="fill:#0602b1;fill-opacity:1;stroke:none;stroke-width:0.181419;stroke-opacity:1;-inkscape-stroke:none;stop-color:#000000"
         d="M 4.2833346,112.03575 C 6.2953026,98.224695 16.330733,64.180788 15.94284,61.015152 l 11.618767,-0.945125 c 5.158201,0.002 14.857696,-0.369705 18.517188,-0.127363 6.627476,0.438892 4.995126,1.24121 4.678995,3.388996 l -0.649965,4.415832 c -2.508816,0.06992 -11.456066,-0.03409 -16.312972,-0.237561 l -6.68604,0.923668 -1.999721,8.839103 c -0.706541,4.711559 -0.299026,3.307147 8.650508,3.629656 10.559958,0.380542 11.160354,-0.922075 10.681934,2.17839 -0.218037,1.413028 -1.400777,6.397247 -1.400777,6.397247 -4.350874,1.385407 -7.727275,-0.05809 -12.890169,-0.02453 -5.162894,0.03356 -7.254631,0.983701 -7.914597,1.282203 -1.35621,3.069487 -2.983988,13.120622 -2.915317,15.658542 0.6552,2.45139 1.119377,2.50156 11.916989,2.60646 6.967317,0.0677 8.891297,-0.30531 9.892478,0.69586 1.047792,2.2929 0.168283,4.08805 -0.67582,5.35538 0,0.49769 -0.272163,1.59827 -0.868692,1.82718 -0.596531,0.22891 -6.621697,0.20386 -15.075756,0.12389 L 3.6726156,116.80589 Z"
         id="path104927"
         inkscape:label="E2"
         sodipodi:nodetypes="cccssccccsscsccsccsscc" />
      <path
         style="fill:#0602b1;fill-opacity:1;stroke:none;stroke-width:0.181419;stroke-opacity:1;-inkscape-stroke:none;stop-color:#000000"
         d="m -38.042978,74.736308 c 0.725855,-1.825069 3.126827,-11.814528 6.966924,-12.451045 1.16596,-0.680358 2.882859,-1.343205 5.081526,-1.788156 2.404152,-0.266936 9.769579,-0.666391 16.9321137,-0.40924 13.2328075,0.475087 14.2155495,2.484544 13.3212982,4.814925 -0.6144564,1.601249 -3.39470999,3.66771 -15.0550049,3.677846 l -9.957159,0.501929 -2.191352,2.529402 c -1.69768,4.321407 -8.587954,27.574172 -6.871971,32.879571 1.163185,2.7839 3.575032,2.80821 10.159656,2.81406 6.905727,-1.54045 5.021647,-1.97514 8.583872,-7.18552 0.767352,-4.46002 -0.14672,-5.123461 1.4414607,-9.432355 -1.2012217,-1.275367 -1.8101207,-0.637605 -4.4135827,-0.965402 -2.564444,0.934033 -7.498871,-0.04484 -7.027466,-0.23506 0.471405,-0.190216 0.06133,-3.57416 0.957533,-4.499939 l 0.352872,-3.650836 12.5361153,-0.258998 9.3536889,0.658947 0.086291,4.054989 c -0.627078,6.061266 -4.8833465,25.383544 -6.229216,28.481684 -0.5714127,2.18406 -0.2117085,1.60752 -18.7682822,2.3976 -13.212944,0.56257 -19.593843,0.23364 -19.73741,-0.49345 l -2.024015,-10.25041"
         id="path93343"
         inkscape:label="G"
         sodipodi:nodetypes="cccssccccccccsscccccssc" />
      <path
         style="fill:#0602b1;fill-opacity:1;stroke:none;stroke-width:0.181419;stroke-opacity:1;-inkscape-stroke:none;stop-color:#000000"
         d="m -88.630802,112.03575 c 2.011968,-13.811055 11.900145,-48.255889 11.512252,-51.421525 l 11.766017,-0.544198 c 5.158201,0.002 14.857696,-0.369705 18.517188,-0.127363 6.627476,0.438892 4.995126,1.24121 4.678995,3.388996 l -0.649965,4.415832 c -2.508816,0.06992 -11.456066,-0.03409 -16.312972,-0.237561 l -6.68604,0.923668 -1.999721,8.839103 c -0.706541,4.711559 -0.299026,3.307147 8.650508,3.629656 10.559958,0.380542 11.160354,-0.922075 10.681934,2.17839 -0.218037,1.413028 -0.601377,5.268255 -0.601377,5.268255 -4.350874,1.385407 -8.526675,1.070903 -13.689569,1.104464 -5.162894,0.03356 -7.254631,0.983701 -7.914597,1.282203 -1.35621,3.069487 -2.983988,13.12062 -2.915317,15.65854 0.6552,2.45139 1.119377,2.50156 11.916989,2.60646 6.967317,0.0677 8.891297,-0.30531 9.892478,0.69586 1.047792,2.2929 0.168283,4.08805 -0.67582,5.35538 0,0.49769 -1.822668,1.23045 -2.419197,1.45936 -0.596531,0.22891 -5.071192,0.57168 -13.525251,0.49171 l -20.837254,-0.19709 z"
         id="path93304"
         inkscape:label="E1"
         sodipodi:nodetypes="cccssccccsscsccsccsscc" />
      <path
         style="fill:#0602b1;fill-opacity:1;stroke:none;stroke-width:0.181419;stroke-opacity:1;-inkscape-stroke:none;stop-color:#000000"
         d="m -138.46411,115.56696 c -0.14529,-0.4714 -0.46256,-5.73115 -0.6853,-7.32314 1.97081,-7.80557 7.04537,-29.864677 10.71719,-46.986948 l 2.84102,-1.285454 c 6.77248,0.780386 28.59486,-2.425641 33.974827,3.137559 0.559963,2.29481 0.914589,5.120824 0.914589,5.120824 0.01538,5.847248 -0.549336,10.049971 -1.653351,14.708409 0,0 -1.100207,3.909273 -4.256716,7.272843 -0.68041,0.0017 -4.937769,1.448699 -6.053609,2.49154 -1.86551,1.74347 -1.60159,0.313302 -1.19242,3.298526 0.53377,4.890371 4.72847,12.479141 8.039338,13.979311 -0.347438,0.65139 -0.614872,3.90166 -0.825253,4.57759 -0.332119,1.06706 -2.352038,1.90793 -6.974975,1.73389 -5.24208,-0.19735 -7.46158,0.81627 -7.67519,-1.0402 -1.96882,-6.81392 -3.70833,-13.48958 -4.65197,-20.393379 -0.17686,-1.816551 -1.75945,-2.797068 -3.62178,-2.940071 -2.18897,-0.168086 -2.11062,1.870487 -3.39766,3.437763 -0.23516,4.331131 -1.61336,9.821747 -2.65196,14.070207 0.23635,0.74468 -0.20708,3.32965 -0.82294,4.62741 -1.07531,2.26605 -2.50309,2.79665 -6.11462,2.79665 -2.41047,0 -5.73991,-0.73394 -5.90922,-1.28333 z m 33.04615,-33.527026 c 1.94128,-3.113746 1.99346,-2.785265 3.07087,-6.350375 1.06475,-3.523216 0.65813,-5.912372 -1.43042,-6.330092 -3.29019,-0.658039 -10.27952,-0.300447 -12.24885,0.448295 l -2.80337,6.358526 c -0.98136,0.932701 -0.71651,4.503446 0.0344,5.629942 0.57257,0.858969 0.80433,1.185814 8.8834,1.756613 0.78279,0.05531 3.89168,-0.546841 4.49398,-1.512909 z"
         id="path93265"
         inkscape:label="R"
         sodipodi:nodetypes="scccccccsccssccscccsssssccsss" />
      <path
         style="fill:#fc3810;fill-opacity:1;stroke:none;stroke-width:0.0226774;stroke-opacity:1;-inkscape-stroke:none;stop-color:#000000"
         d="m -24.41337,54.78493 c -1.547676,-0.110607 -1.670422,0.01991 -3.276192,-0.370536 0,0 -3.949164,-2.568022 -4.556583,-3.114144 -0.46014,-0.413706 -0.195978,-2.784568 -0.195978,-2.784568 0.366947,-0.265757 6.014118,-0.640733 15.925126,-1.415337 10.3116276,-0.805915 12.6526499,-0.851133 14.5829691,-1.571298 1.26724338,-0.472785 2.16366017,-0.612036 2.17400197,-1.711131 0.006831,-0.726117 0.11514428,-0.694535 -0.4654821,-1.133408 -1.05689497,-0.798863 -2.04503787,-0.666586 -6.25556127,-0.94152 -0.7542473,-0.04925 -5.0358257,-0.611101 -7.7699717,-0.656373 -5.882332,-0.0974 -7.965983,-0.04996 -10.906938,-0.457038 -3.687335,-0.510388 -5.737542,-1.796394 -6.171326,-2.635239 -0.538938,-1.042191 0.518005,-3.77013 3.83098,-5.848708 1.191909,-0.74781 4.522695,-2.34112 5.889322,-2.877953 4.566906,-1.793955 9.20093,-2.647111 14.7982351,-2.49409 5.0503795,0.138068 10.8723059,0.666966 11.1385774,2.086316 0.076729,0.409 -0.2308224,2.274304 -0.7449311,2.788412 -1.1661322,1.166132 -1.8505606,1.456429 -4.6586556,0.582108 -1.1188418,-0.34836 -2.6806854,-0.641829 -4.0152839,-0.824092 -1.1009241,-0.15035 -7.6608879,-0.02185 -9.2635709,0.128655 -5.162439,0.484801 -7.828415,1.353907 -10.614487,2.638982 -0.823876,0.380012 -1.128045,0.642926 -1.640519,1.129146 -0.477576,0.45311 -0.543793,0.302764 -0.543793,0.789404 0,0.490261 -0.466172,0.397219 -0.01103,0.80841 0.61391,0.55463 -0.08668,0.419787 1.30046,0.514207 0.747167,0.05086 0.808915,0.230355 2.620524,-0.03996 1.991373,-0.297137 7.814308,-0.731802 11.725776,-1.00137 1.6528253,-0.113908 6.2236734,-0.0552 7.5413116,0.05813 3.89458388,0.335075 6.8053233,1.387759 7.9111337,2.970585 0.4259826,0.609741 1.4265928,2.010152 1.419778,2.867081 -0.022608,2.843021 -3.4572004,6.151823 -8.1550584,8.235809 -4.7636935,2.113195 -13.2140129,4.703549 -18.3271579,4.338127 z"
         id="path87232"
         sodipodi:nodetypes="csssssssssssssssssssssssssscssscc"
         inkscape:label="s" />
      <path
         style="fill:#fd410e;fill-opacity:1;stroke:none;stroke-width:0.0453548;stroke-opacity:1;-inkscape-stroke:none;stop-color:#000000"
         d="M 29.773527,53.71382 C 27.023008,52.841802 23.536311,49.158374 18.914207,43.098843 16.813202,40.344447 10.475664,30.87661 10.475664,30.691677 c 0,-0.198779 3.56094,-3.98983 4.48483,-4.506202 1.234817,-0.690152 3.656848,-0.322352 6.307566,0.976432 1.185126,0.580681 3.830627,2.879604 4.419098,3.276363 2.525157,1.702513 4.301401,3.77533 8.901792,11.19347 1.928175,3.109187 2.637221,4.626199 4.456806,5.518522 1.043978,0.511964 2.225101,0.659426 3.350162,0.655958 1.278868,-0.423816 1.382535,-0.631139 2.365991,-1.875304 1.439505,-1.821111 3.582114,-5.729735 6.227259,-11.500038 1.669608,-3.642203 2.47307,-4.930141 3.652514,-5.979144 1.657583,-1.474263 4.489784,-2.603481 6.779024,-2.269821 3.220466,0.469387 3.888196,1.185053 4.388855,9.35674 0.44162,7.208056 1.473128,9.255715 3.302584,11.986709 0.855559,1.277172 0.544352,2.609956 1.165233,2.51255 0,0 -0.280891,2.075909 -0.432018,2.394385 -0.663481,1.398181 -4.622167,2.095236 -7.126834,1.328964 -3.128957,-0.957265 -6.999623,-3.619711 -6.999623,-5.60044 0,-0.763231 -1.298034,-2.233993 -2.202154,-4.374355 l -1.118099,-2.646924 -1.671466,1.871393 c -7.123377,7.975417 -10.323955,9.750673 -12.088585,10.42118 -2.212993,0.840871 -7.013688,0.868662 -8.865072,0.281705 z"
         id="path80154"
         sodipodi:nodetypes="sssssssscssssssssssscsss"
         inkscape:label="u" />
      <path
         style="fill:#fd2e12;fill-opacity:1;stroke:none;stroke-width:0.0320707;stroke-opacity:1;-inkscape-stroke:none;stop-color:#000000"
         d="m -62.010453,12.988128 c -1.576308,-0.368332 -2.52837,-1.352985 -3.274711,-2.087647 -0.816351,-0.803576 -1.636291,-1.9460817 -2.148256,-3.271727 -0.773936,-2.0039746 1.001802,-3.9420716 2.222012,-4.8738702 3.580555,-2.73424767 7.674045,-3.8585831 10.548212,-2.34962385 1.174703,0.61672775 3.499564,3.52402055 3.499564,5.12747625 0,1.9618847 -1.440942,3.8701043 -4.347281,5.6760188 -1.667881,1.036372 -3.504684,1.892309 -3.82633,1.875631 -0.161121,-0.0084 -2.006543,0.05952 -2.67321,-0.09626 z"
         id="path9126"
         sodipodi:nodetypes="ssssssscs"
         inkscape:label="io" />
      <path
         style="fill:#fd1616;fill-opacity:1;stroke:#000000;stroke-width:0.128283;stroke-opacity:1;-inkscape-stroke:none;stop-color:#000000"
         d="m -127.69121,53.931779 c -0.95816,-0.186359 -1.74889,-0.821676 -2.72788,-1.426728 -4.07063,-2.515782 -13.60941,-13.927536 -29.25692,-37.156988 -12.18951,-18.095876 -14.61618,-22.1157479 -18.71128,-26.364059 -4.63651,-4.80997 -3.15256,-4.041393 -8.23769,-3.656441 -1.07108,0.08108 -10.55024,7.4003902 -13.42775,11.7472983 -2.62502,3.9654894 -5.21515,3.8353807 -5.21515,3.8353807 0.56618,-1.35673737 3.70872,-9.4819781 6.69575,-12.423145 5.92605,-5.835072 12.52096,-8.869379 22.21899,-8.329292 12.43365,0.692435 16.55629,3.180094 41.00141,41.13881 9.03954,14.036735 16.01404,22.552128 20.94946,25.157456 1.70498,0.900034 3.11035,1.274938 5.98848,1.283806 3.15215,0.0097 3.3504,-0.789263 6.13552,-2.160371 6.150337,-3.027801 11.136705,-10.530519 15.412313,-20.914539 3.847626,-9.344588 3.421352,-12.169881 1.238884,-24.69592101 -2.393663,-13.73816999 -1.173544,-20.14435599 1.251961,-20.61146199 1.494012,-0.28772 5.658364,2.832823 6.984962,5.688496 1.129993,2.432468 1.488229,3.62575 1.443938,7.9077717 -0.03438,3.3226022 -0.224953,7.2678522 -1.0921,11.0888447 -0.695961,3.0666667 -1.789308,10.1725946 -2.727029,14.9325206 -0.980349,4.976326 -2.914648,10.535938 -3.719196,12.450828 -3.491685,8.310453 -10.964328,16.947527 -19.110573,20.380826 -2.8835,1.215273 -5.92857,2.623427 -14.15712,2.726792 -4.8,0.0603 -6.78105,0.208825 -7.73921,0.02246 z"
         id="path74167"
         sodipodi:nodetypes="sssssssssssssssssssssssss"
         inkscape:label="v" />
      <path
         style="fill:#fe5a0a;fill-opacity:1;stroke:none;stroke-width:0.128283;stroke-opacity:1;-inkscape-stroke:none;stop-color:#000000"
         d="m 81.634183,53.303794 c -3.20306,-0.880637 -4.71086,-2.347469 -6.00361,-4.547828 -1.337875,-2.277163 -0.651573,-7.740621 0.738476,-10.392172 4.071121,-7.765747 19.392969,-13.454984 32.175241,-11.8666 5.08059,0.631337 13.56659,3.082858 13.96226,4.113961 0.55854,1.455522 1.35851,15.752988 1.06547,18.583838 -0.3773,3.644905 -2.75286,5.258702 -5.52064,5.258702 -2.44346,0 -4.79676,-2.067238 -4.79676,-3.970467 0,-1.687684 -1.35923,-2.839144 -2.71966,-2.436349 -0.58636,0.173609 -2.29283,1.453675 -4.82687,2.6015 -2.53404,1.147824 -6.76122,2.433121 -8.360517,2.871407 -4.234495,1.160459 -8.006183,1.902995 -11.309411,0.994819 z M 101.93725,42.677968 c 9.47747,-2.389956 13.34226,-4.033713 12.40595,-6.983746 -0.46087,-1.45209 -3.82502,-1.827891 -8.31038,-1.788873 -7.627422,0.06635 -13.661905,4.104825 -18.68316,7.785511 -0.647692,0.474772 -1.031726,2.358673 -1.031726,2.358673 -1.722866,0.805411 7.72659,0.618762 15.619316,-1.371565 z"
         id="path59923"
         sodipodi:nodetypes="sssssssssssssssssss"
         inkscape:label="a" />
      <path
         style="fill:#fe5a0a;fill-opacity:1;stroke:none;stroke-width:0.128283;stroke-opacity:1;-inkscape-stroke:none;stop-color:#000000"
         d="m 134.71833,54.318418 c -1.39107,-0.569353 -3.77088,-3.222001 -4.89032,-5.752668 -1.40563,-3.177673 -2.05487,-12.01344 -2.17313,-33.144401 -0.0955,-17.0670762 0.24245,-19.7394896 1.15162,-20.4060789 1.61856,-1.186682 7.69575,-0.063544 10.78084,4.5173647 l 2.86878,3.6110802 -0.21951,10.240998 c -0.44515,20.767603 -1.74574,32.280266 -1.06244,33.103587 0.31885,0.384199 2.24804,1.201725 2.97044,1.375995 5.71389,1.378424 6.4777,2.974217 3.02877,4.225921 -4.76632,1.729818 -10.27198,3.121715 -12.45505,2.228202 z"
         id="path66200"
         sodipodi:nodetypes="ssssscsssss"
         inkscape:label="l" />
      <path
         style="fill:#fd2e12;fill-opacity:1;stroke:#fd2e12;stroke-width:0.196654;stroke-opacity:1;-inkscape-stroke:none;stop-color:#000000"
         d="m -54.878718,52.944556 c -1.941111,-0.334696 -2.994852,0.225024 -4.62147,-0.267992 -2.630142,-0.797176 -6.290426,-4.072481 -7.32018,-7.557213 -0.66514,-2.250862 -0.865809,-4.244386 -0.805303,-6.827861 l 0.145009,-6.191574 3.489348,-4.32488 c 2.410581,-2.9878 3.649364,-2.319996 5.854739,-2.319996 l 3.408586,0.0388 -0.05251,6.378661 c 0.0051,7.577002 0.349151,11.054694 3.072291,13.777834 1.981009,1.981027 6.263095,0.441358 12.269561,0.441358 3.506193,0 2.58275,1.94381 2.58275,2.289246 0,0.944517 -3.610306,4.350331 -5.707153,5.135696 -2.950018,1.104915 -8.473474,0.09041 -12.315669,-0.572082 z"
         id="path9165"
         sodipodi:nodetypes="cssscssccsssscc"
         inkscape:label="i" />
      <path
         style="display:inline;fill:#000000;stroke-width:0.285224;stroke-miterlimit:4;stroke-dasharray:none"
         d="m -144.87878,117.51515 c -1.16888,-0.75538 -0.89294,-0.97275 1.25,-0.98469 2.50369,-0.0139 2.75,-0.34801 2.75,-3.72978 0,-2.04296 2.5021,-14.02281 5.56022,-26.621888 3.05812,-12.59908 5.32224,-23.527565 5.03138,-24.285527 -0.29869,-0.778383 -1.95683,-1.384777 -3.81021,-1.393426 -2.48652,-0.0116 -2.91803,-0.250131 -1.78139,-0.984687 0.83672,-0.540729 10.19928,-0.976146 21.17327,-0.984687 l 19.67328,-0.01531 3.19023,2.6844 3.19023,2.6844 -0.43078,8.5656 c -0.58606,11.65343 -3.2263,17.60981 -8.77124,19.78792 -4.47162,1.7565 -4.50791,1.85408 -2.84991,7.661665 1.48786,5.21157 2.56542,6.61601 5.0762,6.61601 1.82943,0 1.94788,0.44097 1.34311,5 -0.5888,4.43857 -0.45537,5 1.18832,5 1.48853,0 2.2034,-1.51967 3.64569,-7.75 0.98675,-4.2625 3.76691,-15.849995 6.17814,-25.749995 5.39815,-22.163737 5.41498,-22.495187 1.14346,-22.515313 -2.46622,-0.01162 -2.88826,-0.249089 -1.75,-0.984687 0.84714,-0.547461 10.79735,-0.976039 22.86129,-0.984687 l 21.36129,-0.01531 -0.66461,3.75 c -1.02529,5.785149 -1.59338,7.240316 -2.87536,7.365253 -0.65043,0.06339 -5.69805,0.02337 -11.21691,-0.08893 l -10.0343,-0.204188 -1.04246,5.088939 -1.04246,5.08893 h 9.82676 9.82676 l -0.0997,3.25 c -0.24917,8.12399 -0.34694,8.19562 -11.9423,8.75 l -10.45802,0.5 -1.21911,5 c -0.6705,2.749998 -1.46658,6.012508 -1.76905,7.250008 -0.54253,2.21965 -0.41546,2.25 9.41942,2.25 8.20113,0 10.13218,-0.29095 10.88737,-1.6404 0.55055,-0.98378 1.41818,-1.33128 2.16754,-0.86814 1.36397,0.84297 0.87811,7.10511 -0.91774,11.82857 l -1.01931,2.68099 -31.31265,-0.0605 c -17.33568,-0.0335 -31.96519,-0.47327 -32.77456,-0.9852 -1.14832,-0.72633 -0.97928,-0.92796 0.78809,-0.93999 1.2375,-0.008 2.25,-0.5156 2.25,-1.12708 2e-5,-3.48946 -5.56306,-21.888262 -6.61814,-21.888262 -1.53903,0 -6.44369,20.100952 -5.23383,21.450002 0.4686,0.5225 0.85199,1.535 0.85199,2.25 0,1.58147 -18.60578,1.84727 -21,0.3 z m 16,-3.25 c 0,-0.9625 0.45857,-1.75 1.01905,-1.75 0.58765,0 0.75342,-1.05835 0.39159,-2.5 -0.36053,-1.4365 -0.19577,-2.5 0.38733,-2.5 0.55814,0 0.77943,-0.9 0.49178,-2 -0.28766,-1.1 -0.0627,-2 0.5,-2 0.56265,0 0.78765,-0.9 0.5,-2 -0.30554,-1.16838 -0.0307,-2 0.66101,-2 0.70103,0 0.94218,-0.76196 0.59116,-1.867918 -0.32607,-1.02735 -0.13219,-3.07956 0.43085,-4.56047 0.89614,-2.35701 1.49125,-2.65386 4.77547,-2.38208 3.33351,0.27586 3.74801,0.60872 3.71814,2.98576 -0.0185,1.4714 0.33705,2.4462 0.79008,2.16621 0.45304,-0.27999 0.51504,0.72075 0.13778,2.223858 -0.49708,1.98053 -0.35943,2.53116 0.5,2 0.85942,-0.53115 0.99708,0.0195 0.5,2 -0.49708,1.98053 -0.35943,2.53116 0.5,2 0.85942,-0.53115 0.99708,0.0195 0.5,2 -0.49708,1.98053 -0.35943,2.53116 0.5,2 0.85942,-0.53115 0.99708,0.0195 0.5,2 -0.50859,2.02636 -0.36864,2.53685 0.54129,1.97448 0.85541,-0.52867 1.12683,-0.0913 0.89585,1.4436 -0.31161,2.07071 0.0563,2.20699 6.16862,2.28484 5.76127,0.0734 6.46286,-0.12395 6.17321,-1.73627 -0.17974,-1.00048 0.25501,-2.17863 0.96611,-2.61811 0.92355,-0.57079 0.51696,-1.09408 -1.4232,-1.83173 -1.49387,-0.56797 -2.71612,-1.71881 -2.71612,-2.55742 0,-0.83861 -0.49814,-1.52475 -1.10699,-1.52475 -0.60884,0 -0.84797,-0.675 -0.53138,-1.5 0.31658,-0.825 0.0872,-1.5 -0.50965,-1.5 -0.59688,0 -0.84973,-0.90062 -0.56187,-2.00138 0.33295,-1.27319 0.13163,-1.75927 -0.55331,-1.33595 -0.70104,0.43326 -0.83113,0.0255 -0.37287,-1.16868 0.40352,-1.051538 0.20598,-2.141768 -0.46299,-2.555208 -0.86322,-0.5335 -0.78364,-1.26815 0.30582,-2.82359 0.80995,-1.15636 1.76977,-1.80533 2.13293,-1.44216 0.36317,0.36317 0.66031,0.0828 0.66031,-0.62299 0,-0.79127 0.76736,-1.08263 2.00138,-0.75993 1.10076,0.28785 1.79112,0.18316 1.53413,-0.23265 -0.25699,-0.41582 0.60647,-1.33067 1.91879,-2.033 1.5231,-0.81514 2.17262,-1.83312 1.79593,-2.81476 -0.38438,-1.00167 -0.18622,-1.28818 0.56838,-0.82181 0.75689,0.46779 0.95204,0.178 0.56295,-0.83595 -0.32988,-0.85966 -0.07168,-1.55194 0.57884,-1.55194 0.7193,0 0.9284,-0.77501 0.5396,-2 -0.34913,-1.1 -0.25562,-2 0.20779,-2 1.56434,0 0.90274,-11.392833 -0.75492,-13 -1.39617,-1.353642 -1.39617,-1.402428 0,-0.5 1.33295,0.861563 1.36396,0.765963 0.22402,-0.690559 -0.72772,-0.929808 -1.96522,-1.444163 -2.75,-1.143011 -0.78479,0.301151 -1.42689,0.0494 -1.42689,-0.559441 0,-1.186511 -26.45096,-1.638643 -29.4111,-0.502731 -1.12343,0.431102 -1.39164,1.333525 -0.93594,3.149153 0.48373,1.927361 0.32529,2.351181 -0.65296,1.746589 -0.98878,-0.611098 -1.13083,-0.157412 -0.60576,1.934636 0.48548,1.934326 0.35074,2.52579 -0.46109,2.024048 -0.82342,-0.508902 -0.94562,0.208051 -0.43315,2.541316 0.44064,2.00622 0.34549,3.02254 -0.24861,2.65537 -0.56569,-0.34962 -0.75613,0.48459 -0.46194,2.02352 0.35391,1.85138 0.15339,2.40382 -0.68454,1.88595 -0.85838,-0.53051 -0.99598,0.021 -0.49915,2.00052 0.49708,1.98053 0.35943,2.53116 -0.5,2 -0.85942,-0.53115 -0.99708,0.0195 -0.5,2 0.52507,2.09205 0.38302,2.54574 -0.60576,1.93464 -0.98878,-0.6111 -1.13083,-0.15741 -0.60576,1.93464 0.48548,1.93432 0.35074,2.52579 -0.46109,2.02404 -0.82342,-0.5089 -0.94562,0.20806 -0.43315,2.54132 0.44064,2.00622 0.34549,3.02254 -0.24861,2.65537 -0.56569,-0.34962 -0.75613,0.48459 -0.46194,2.023518 0.35391,1.85138 0.15339,2.40382 -0.68454,1.88595 -0.85838,-0.53051 -0.99598,0.021 -0.49915,2.00052 0.49708,1.98053 0.35943,2.53116 -0.5,2 -0.85942,-0.53115 -0.99708,0.0195 -0.5,2 0.52789,2.10326 0.38562,2.54735 -0.61744,1.92742 -0.98754,-0.61033 -1.14735,-0.22242 -0.6595,1.60085 0.35413,1.3235 0.65002,3.30637 0.65753,4.40637 0.0116,1.70168 0.68487,2 4.51365,2 3.61905,0 4.5,-0.34259 4.5,-1.75 z m 15.34706,-30.487878 c -5.71565,-0.32746 -6.20073,-0.54295 -6.82548,-3.03216 -0.37114,-1.47875 -0.23814,-2.82444 0.29678,-3.00275 0.53313,-0.17771 0.73961,-1.20153 0.45885,-2.27516 -0.29403,-1.12438 -0.008,-1.95205 0.67355,-1.95205 0.72226,0 0.94058,-0.767 0.55981,-1.96669 -0.80731,-2.54361 2.07544,-3.320595 10.64136,-2.868159 l 6.33966,0.334849 0.12671,4.73022 c 0.0786,2.93431 -0.25381,4.49505 -0.87553,4.1108 -0.55123,-0.34067 -0.80834,-0.0377 -0.57137,0.67319 0.35336,1.06006 -3.7887,6.43193 -4.46685,5.79311 -0.1125,-0.10597 -2.97337,-0.35131 -6.35749,-0.5452 z m 7.65294,-4.26212 c 1.2381,-1.2381 2,-3.33333 2,-5.5 v -3.5 h -5.875 c -5.67495,0 -5.89464,0.09818 -6.45167,2.88334 -0.31716,1.58583 -0.8722,4.06083 -1.23341,5.5 -0.64413,2.56644 -0.55869,2.61666 4.45167,2.61666 3.77508,0 5.63043,-0.52202 7.10841,-2 z m 52.00056,34.690978 c -3.1e-4,-0.99496 0.44944,-1.5309 0.99944,-1.19098 1.15446,0.7135 1.24094,0.29144 0.39301,-1.91821 -0.50153,-1.30698 -2.47921,-1.58179 -11.38337,-1.58179 -10.33449,0 -10.80051,-0.0923 -11.36481,-2.25 -0.78208,-2.99047 0.36026,-9.864888 1.52015,-9.14803 0.52247,0.3229 0.63691,-0.543128 0.26669,-2.018178 -0.39667,-1.58046 -0.23026,-2.58379 0.42854,-2.58379 0.59236,0 0.84566,-0.6029 0.5629,-1.33979 -1.10211,-2.87204 2.23408,-3.80256 12.46972,-3.47804 9.96407,0.31592 10.02104,0.30428 9.45741,-1.93217 -0.32552,-1.29161 -0.10829,-2.25 0.50997,-2.25 0.59236,0 0.818,-0.675 0.50142,-1.5 -0.44955,-1.17149 -2.46848,-1.50335 -9.21862,-1.51531 -10.53986,-0.0187 -11.51077,-0.50746 -10.60443,-5.33865 0.3762,-2.00532 0.98916,-3.64604 1.36213,-3.64604 0.37297,0 0.66039,-1.2375 0.63871,-2.75 l -0.03942,-2.75 12.25,-0.280779 c 6.7375,-0.154428 12.25,-0.462633 12.25,-0.6849 0,-0.222267 -0.41948,-1.507444 -0.93218,-2.85595 l -0.93219,-2.451828 -16.1877,-0.06374 -16.1877,-0.06373 0.63408,4.200463 c 0.47284,3.13235 0.36075,3.819036 -0.44079,2.700463 -0.81044,-1.130985 -0.91063,-0.66969 -0.40726,1.875105 0.41014,2.073468 0.29642,3.145695 -0.29487,2.780265 -0.56569,-0.34962 -0.75613,0.48459 -0.46194,2.02352 0.35391,1.85138 0.15339,2.40382 -0.68454,1.88595 -0.85838,-0.53051 -0.99598,0.021 -0.49915,2.00052 0.49708,1.98053 0.35943,2.53116 -0.5,2 -0.85942,-0.53115 -0.99708,0.0195 -0.5,2 0.51532,2.05321 0.37434,2.54037 -0.56685,1.95869 -0.9534,-0.58924 -1.09324,0.0323 -0.58517,2.60084 0.51774,2.61744 0.41588,3.03838 -0.45374,1.87511 -0.86962,-1.16327 -0.97148,-0.74233 -0.45374,1.87511 0.41014,2.07346 0.29642,3.14569 -0.29487,2.78026 -0.56569,-0.34962 -0.75613,0.48459 -0.46194,2.02352 0.35391,1.85138 0.15339,2.40382 -0.68454,1.88595 -0.85838,-0.53051 -0.99598,0.021 -0.49915,2.000519 0.48041,1.91412 0.34713,2.52356 -0.44486,2.03408 -0.79253,-0.48981 -0.96054,0.28819 -0.56165,2.60085 0.45061,2.61252 0.33071,2.98732 -0.57573,1.79971 -0.90013,-1.17935 -1.01204,-0.75181 -0.52352,2 0.47598,2.68112 0.36451,3.14905 -0.47643,2 -0.83454,-1.14032 -0.95104,-0.54086 -0.48585,2.5 0.45373,2.9659 0.33802,3.61221 -0.44759,2.5 -0.58273,-0.825 -1.0664,-1.0125 -1.07482,-0.41667 -0.008,0.59584 0.17291,1.27084 0.40296,1.5 0.23005,0.22917 8.1053,0.41667 17.50056,0.41667 15.8147,0 17.08225,-0.13424 17.08173,-1.80902 z m 6.49944,3.29123 c -1.94914,-0.82024 -1.94591,-0.84343 0.12716,-0.91192 1.90347,-0.0629 2.07679,-0.51723 1.64814,-4.32029 -0.96613,-8.57166 5.40829,-37.139938 11.15646,-49.999998 0.58454,-1.307748 0.31293,-1.775868 -1.07477,-1.852361 -1.02135,-0.0563 -0.28199,-0.486458 1.64301,-0.955909 1.925,-0.469452 22.2875,-0.869481 45.25,-0.888956 l 41.75,-0.03541 -0.0564,2.241316 c -0.03109,1.232728 -0.59384,3.81632 -1.2506,5.74132 l -1.19411,3.5 -11.03143,-0.350237 -11.03143,-0.350237 -1.04477,5.100234 -1.04478,5.10024 h 9.82676 9.82676 l -0.0997,3.25 c -0.24904,8.11962 -0.35248,8.19568 -11.90151,8.75 l -10.41723,0.5 -1.13495,4 C 21.9436,98.21515 21.149,101.47765 20.80204,103.26515 l -0.63082,3.25 H 30.1776 c 7.97208,0 10.12341,-0.30495 10.58199,-1.5 0.31659,-0.825 1.26044,-1.5 2.09745,-1.5 1.24847,0 1.40241,0.90034 0.85695,5.01218 -0.36569,2.7567 -0.92181,5.6817 -1.23582,6.5 -0.39409,1.02698 0.0817,1.48782 1.53606,1.48782 1.40576,0 2.10699,-0.6344 2.10699,-1.9062 0,-1.04841 5.18925,-8.11173 11.53168,-15.69626 6.34242,-7.584538 11.35364,-14.264238 11.13606,-14.843798 -0.21759,-0.57956 -1.87436,-5.32874 -3.68171,-10.55374 -3.69966,-10.695611 -5.24183,-13 -8.70003,-13 -1.34805,0 -2.13256,-0.439257 -1.786,-1 0.34801,-0.563099 5.16849,-1 11.03334,-1 10.35481,0 10.42346,0.01597 11.82054,2.75 0.77288,1.5125 1.74002,4.302767 2.14919,6.200592 l 0.74396,3.450593 3.78692,-4.440999 c 2.08281,-2.44255 3.57567,-4.782816 3.31747,-5.200593 -0.2582,-0.417776 -1.7929,-0.759593 -3.41044,-0.759593 -1.61754,0 -2.94098,-0.375618 -2.94098,-0.834706 0,-0.459088 5.175,-0.938118 11.5,-1.064513 l 11.5,-0.229807 v 3.323613 c 0,2.691201 -1.61737,5.295846 -8.5,13.688603 -4.675,5.70074 -8.49997,10.87165 -8.49994,11.4909 1.5e-4,2.79513 9.24856,27.258788 10.72742,28.375908 2.45664,1.85572 3.27252,1.5364 3.27252,-1.28077 0,-1.39192 2.71545,-13.3647 6.03432,-26.606178 6.53381,-26.068218 6.55284,-26.86305 0.64324,-26.86305 -2.16296,0 -2.76334,-0.314223 -2.02023,-1.057332 0.69668,-0.696681 8.29918,-0.952503 22.28847,-0.75 l 21.23113,0.307332 2.41154,2.805764 c 5.0221,5.843105 2.35436,24.134006 -4.69016,32.157276 -3.50276,3.98942 -8.85443,5.536958 -19.1478,5.536958 h -7.36384 l -1.72129,7.17204 c -1.17874,4.9114 -1.39728,7.49606 -0.69334,8.2 0.56538,0.56538 1.02796,1.61296 1.02796,2.32796 0,1.02715 -4.25016,1.27908 -20.25,1.20032 -11.1375,-0.0548 -21.375,-0.45997 -22.75,-0.90032 -2.33609,-0.74815 -2.2799,-0.80718 0.85699,-0.90032 2.23596,-0.0664 3.20315,-0.5171 2.89632,-1.34968 -0.25336,-0.6875 -1.47651,-4.3275 -2.7181,-8.08889 -1.24159,-3.76139 -2.60498,-6.46139 -3.02975,-6 -0.42478,0.46139 -2.85755,3.42958 -5.40617,6.59597 -3.64152,4.52422 -4.50221,6.28152 -4.01919,8.20604 l 0.61465,2.44895 -55.34738,-0.0441 c -30.44105,-0.0243 -56.24737,-0.42285 -57.34737,-0.88576 z m 26.41315,-2.03196 c 13.287,-0.10726 15.86502,-0.36474 15.41422,-1.53952 -0.29774,-0.7759 -0.0853,-1.41073 0.47202,-1.41073 0.55735,0 0.77802,-0.9 0.49036,-2 -0.28766,-1.1 -0.0829,-2 0.45495,-2 0.53787,0 0.75011,-1.19188 0.47164,-2.64862 -0.27847,-1.45675 -0.10357,-2.40301 0.38867,-2.10282 0.49225,0.3002 0.9686,-1.30746 1.05856,-3.57256 0.09,-2.265108 0.58706,-4.259538 1.10466,-4.432078 0.5176,-0.17253 0.71625,-1.48988 0.44144,-2.92743 -0.27481,-1.43756 -0.0955,-2.36397 0.39844,-2.05869 0.49395,0.30528 0.97371,-1.39872 1.06612,-3.78666 l 0.16803,-4.3417 -9.71357,-0.31472 -9.71357,-0.31472 0.42679,2.89205 c 0.29243,1.9816 0.0697,2.67134 -0.70756,2.19098 -0.62501,-0.38627 -1.13496,-0.1133 -1.13571,0.60795 -10e-4,0.96502 1.47601,1.21717 5.62053,0.95948 3.68366,-0.22903 5.40234,0.006 4.98505,0.6809 -0.35026,0.56675 -0.1795,1.3131 0.37947,1.65856 0.55897,0.34546 1.00942,1.61406 1.001,2.8191 -0.0127,1.8153 -0.19456,1.93378 -1.06068,0.69098 -0.77246,-1.10841 -0.87108,-0.6189 -0.37775,1.87511 0.41014,2.073458 0.29642,3.145688 -0.29487,2.780258 -0.54787,-0.33861 -0.77785,0.37094 -0.53389,1.64717 0.24725,1.29338 -0.43265,3.33691 -1.60687,4.82968 -1.85179,2.35418 -2.69303,2.59045 -9.32304,2.61845 -5.81811,0.0246 -7.64046,-0.34203 -9.03759,-1.81813 -1.90975,-2.0177 -2.52386,-9.528848 -0.68622,-8.39312 0.72059,0.44535 0.84599,-0.503448 0.38871,-2.940988 -0.39912,-2.12747 -0.27749,-3.59843 0.29755,-3.59843 0.53494,0 0.75756,-1.125 0.49471,-2.5 -0.26285,-1.375 -0.0176,-2.5 0.54505,-2.5 0.56263,0 0.78761,-0.9 0.49995,-2 -0.28766,-1.1 -0.0627,-2 0.5,-2 0.56266,0 0.76925,-0.97037 0.45911,-2.15637 -0.4106,-1.57013 -0.22009,-1.94388 0.70075,-1.37477 0.94207,0.58223 1.08246,0.20755 0.55039,-1.46886 -0.48276,-1.52105 -0.35914,-2.03098 0.38141,-1.57329 0.63995,0.39551 0.89166,0.13565 0.60516,-0.62477 -0.26979,-0.71607 0.40375,-2.76444 1.49675,-4.55194 l 1.98728,-3.25 h 11.55691 c 12.054,0 14.60298,-0.784985 13.70458,-4.220472 -0.41285,-1.578759 -1.79195,-1.779528 -12.22372,-1.779528 -6.4671,0 -13.23459,-0.295244 -15.03886,-0.656098 -2.35662,-0.471325 -3.07927,-0.330512 -2.56598,0.5 0.44627,0.72209 -0.0585,1.203024 -1.34451,1.281098 -4.16946,0.253122 -4.55272,0.456202 -4.24214,2.247794 0.18775,1.083032 -0.11321,1.5621 -0.73854,1.17562 -0.66336,-0.409974 -0.81081,-0.01483 -0.39695,1.063693 0.48212,1.256381 0.30375,1.496745 -0.66596,0.897429 -0.88487,-0.54688 -1.0858,-0.432409 -0.60539,0.344904 0.90182,1.459173 -0.25995,5.35636 -1.38878,4.6587 -0.45911,-0.28374 -0.58082,0.45509 -0.27048,1.64185 0.39624,1.51523 0.20765,1.93735 -0.63334,1.41759 -0.87371,-0.53998 -1.01209,-0.001 -0.51168,1.99278 0.43409,1.72954 0.31826,2.50572 -0.31546,2.11406 -0.60956,-0.37674 -0.83164,0.44528 -0.56755,2.10084 0.35092,2.20001 0.21618,2.4331 -0.70514,1.21974 -0.89186,-1.17457 -0.99412,-0.76776 -0.47135,1.87511 0.39348,1.98927 0.28739,3.14012 -0.25838,2.80281 -0.52181,-0.3225 -0.7558,0.82323 -0.53608,2.62489 0.3076,2.52226 0.15602,2.88054 -0.71805,1.69719 -0.84483,-1.14378 -0.94753,-0.57512 -0.43244,2.39456 0.48106,2.77346 0.35128,3.694168 -0.45084,3.198438 -0.80331,-0.496478 -0.96275,0.68096 -0.55592,4.10544 0.42217,3.55363 0.29307,4.41171 -0.49675,3.30156 -0.83107,-1.16813 -1.07056,-0.63941 -1.08249,2.38976 -0.01,2.50591 0.60728,4.40007 1.73469,5.32415 0.9625,0.78892 1.11797,1.10651 0.34549,0.70574 -0.90081,-0.46734 -1.15829,-0.33029 -0.71797,0.38217 0.37759,0.61096 1.42094,0.82901 2.31855,0.48457 1.18622,-0.4552 1.40582,-0.26027 0.80393,0.71361 -0.603,0.97568 -0.38154,1.16852 0.81475,0.70946 0.90357,-0.34673 8.82285,-0.68838 17.5984,-0.75921 z m 24.90354,-8.20025 c 1.18395,-5.0875 3.95953,-16.867798 6.16797,-26.178438 2.20844,-9.31064 4.01534,-17.748136 4.01534,-18.749996 0,-1.409261 -0.77905,-1.821564 -3.44188,-1.821564 -3.25136,0 -3.51604,0.262923 -4.78187,4.75 l -1.34001,4.75 -12.21348,0.280742 -12.21348,0.280741 -2.00464,3.929417 c -1.10255,2.16118 -2.00464,4.15965 -2.00464,4.44104 0,0.28139 6.1875,0.63682 13.75,0.78984 l 13.75,0.27822 0.30592,2.64111 c 0.16825,1.45261 -1.29425,9.50646 -3.25,17.897428 -1.95576,8.39098 -3.55592,15.41498 -3.55592,15.60889 0,0.19392 1.04941,0.35257 2.33203,0.35257 2.11949,0 2.52822,-0.84304 4.48466,-9.25 z m 35.06489,8.5 c -0.31473,-1.99327 0.21908,-3.30582 1.11842,-2.75 1.15446,0.7135 1.24094,0.29144 0.39301,-1.91821 -0.50153,-1.30698 -2.47921,-1.58179 -11.38337,-1.58179 -10.33449,0 -10.80051,-0.0923 -11.36481,-2.25 -0.78208,-2.99047 0.36026,-9.864888 1.52015,-9.14803 0.52247,0.3229 0.63691,-0.543128 0.26669,-2.018178 -0.39667,-1.58046 -0.23026,-2.58379 0.42854,-2.58379 0.59236,0 0.84566,-0.6029 0.5629,-1.33979 -1.09655,-2.85755 2.23527,-3.80267 12.26108,-3.47804 l 9.81581,0.31783 0.15009,-3.75 0.1501,-3.75 -8.6501,-0.0153 c -10.54726,-0.0187 -11.51793,-0.50702 -10.61151,-5.33865 0.3762,-2.00532 1.02152,-3.64604 1.43404,-3.64604 0.41252,0 0.54506,-1.072252 0.29454,-2.382783 -0.25053,-1.310531 -0.0417,-2.638533 0.46408,-2.951116 0.50577,-0.312583 6.20167,-0.641459 12.65756,-0.730835 9.86675,-0.136597 11.64816,-0.396554 11.17459,-1.630672 -0.30986,-0.807503 -0.56339,-1.860384 -0.56339,-2.339746 0,-0.479361 -7.46514,-1.005057 -16.58919,-1.168212 l -16.58919,-0.296646 0.60338,4 c 0.45238,2.99891 0.33438,3.624591 -0.47148,2.5 -0.81044,-1.130985 -0.91063,-0.66969 -0.40726,1.875105 0.41014,2.073468 0.29642,3.145695 -0.29487,2.780265 -0.56569,-0.34962 -0.75613,0.48459 -0.46194,2.02352 0.35391,1.85138 0.15339,2.40382 -0.68454,1.88595 -0.85838,-0.53051 -0.99598,0.021 -0.49915,2.00052 0.48041,1.91412 0.34713,2.52356 -0.44486,2.03408 -0.79253,-0.48981 -0.96054,0.28819 -0.56165,2.60085 0.45061,2.61252 0.33071,2.98732 -0.57573,1.79971 -0.90013,-1.17935 -1.01204,-0.75181 -0.52352,2 0.48243,2.71748 0.37064,3.16463 -0.5,2 -0.86962,-1.16327 -0.97148,-0.74233 -0.45374,1.87511 0.41014,2.07346 0.29642,3.14569 -0.29487,2.78026 -0.56569,-0.34962 -0.75613,0.48459 -0.46194,2.02352 0.35391,1.85138 0.15339,2.40382 -0.68454,1.88595 -0.85838,-0.53051 -0.99598,0.021 -0.49915,2.000518 0.48041,1.91412 0.34713,2.52356 -0.44486,2.03408 -0.79253,-0.48981 -0.96054,0.28819 -0.56165,2.60085 0.45061,2.61252 0.33071,2.98732 -0.57573,1.79971 -0.90013,-1.17935 -1.01204,-0.75181 -0.52352,2 0.48917,2.75543 0.37725,3.1809 -0.52607,2 -0.93043,-1.21633 -1.03904,-1.02721 -0.57433,1 0.3152,1.375 0.57924,3.05135 0.58675,3.72523 0.0101,0.90363 4.27893,1.30432 16.26365,1.52656 8.9375,0.16574 16.3625,0.40189 16.5,0.52478 0.1375,0.12288 0.19671,-0.11407 0.13158,-0.52657 z m 54.61842,-1.49366 c 0.68671,-0.72087 0.55903,-0.79815 -0.40752,-0.24667 -1.07853,0.61536 -1.27563,0.29872 -0.84326,-1.35468 0.36157,-1.38267 0.18197,-1.92148 -0.5,-1.5 -0.68197,0.42148 -0.86158,-0.11733 -0.5,-1.5 0.36157,-1.38267 0.18197,-1.92148 -0.5,-1.5 -0.68197,0.42148 -0.86158,-0.11733 -0.5,-1.5 0.36157,-1.38267 0.18197,-1.92148 -0.5,-1.5 -0.68197,0.42148 -0.86158,-0.11733 -0.5,-1.5 0.36516,-1.39639 0.18436,-1.92296 -0.51242,-1.49232 -0.68755,0.42493 -0.83869,0.0452 -0.41819,-1.05056 0.44044,-1.14778 0.27899,-1.48145 -0.48759,-1.00768 -0.77953,0.48178 -0.9656,0.0182 -0.5818,-1.44944 0.36157,-1.382668 0.18197,-1.921478 -0.5,-1.499998 -0.68197,0.42148 -0.86158,-0.11733 -0.5,-1.5 0.36157,-1.38267 0.18197,-1.92148 -0.5,-1.5 -0.68197,0.42148 -0.86158,-0.11733 -0.5,-1.5 0.31034,-1.18676 0.19285,-1.9282 -0.26111,-1.64764 -0.45395,0.28055 -1.11637,-0.81481 -1.47203,-2.43415 -0.69132,-3.14754 1.91486,-8.54294 3.61808,-7.49028 0.50347,0.31115 0.79174,-0.0302 0.64062,-0.75859 -0.15113,-0.72838 0.32117,-1.20068 1.04955,-1.04955 0.72838,0.15112 1.09557,-0.0954 0.81598,-0.54775 -0.70082,-1.13396 1.02316,-3.72703 2.47789,-3.72703 0.65513,0 1.31251,-0.82697 1.46086,-1.83771 0.37497,-2.554807 3.45619,-5.747483 4.80459,-4.978383 0.61399,0.350209 0.79468,0.28043 0.40153,-0.155065 -0.87101,-0.964828 1.01765,-4.768732 2.05071,-4.130269 0.40455,0.250024 0.73647,-0.299872 0.73762,-1.221992 0.002,-1.40078 -0.86778,-1.620231 -5.28572,-1.334031 -3.46267,0.224316 -5.28779,0.786077 -5.28779,1.627555 0,0.706753 -0.76138,1.902606 -1.69196,2.65745 -1.441,1.168883 -1.56641,1.164127 -0.84549,-0.03206 0.56241,-0.933189 0.4737,-1.174125 -0.26437,-0.717975 -0.61096,0.377593 -0.88962,1.263015 -0.61924,1.967604 0.27038,0.704589 -0.52902,2.152678 -1.77644,3.217975 -2.25321,1.924244 -2.25834,1.923834 -0.78527,-0.0631 1.36084,-1.835543 1.34376,-1.891202 -0.20779,-0.676887 -0.92981,0.727712 -1.47183,1.893116 -1.20449,2.589787 0.67201,1.75122 -2.22541,3.94672 -4.20567,3.18682 -1.03546,-0.39734 -1.43722,-1.34663 -1.10599,-2.61325 0.32713,-1.250959 0.12521,-1.745116 -0.54407,-1.331478 -0.68845,0.425488 -0.85601,-0.138638 -0.4745,-1.597534 0.32438,-1.240407 0.29391,-1.959418 -0.0677,-1.597803 -0.36161,0.361615 -1.15644,-0.831374 -1.76628,-2.651087 -1.01236,-3.020799 -1.50336,-3.334617 -5.64519,-3.608067 -3.8679,-0.255365 -4.61542,0.0027 -5.07271,1.75138 -0.33973,1.299141 -0.14621,1.809784 0.52795,1.393127 0.68197,-0.421481 0.86158,0.117332 0.5,1.5 -0.36157,1.382668 -0.18197,1.921481 0.5,1.5 0.68197,-0.421481 0.86158,0.117332 0.5,1.5 -0.31034,1.186764 -0.19249,1.927987 0.26189,1.647163 1.13641,-0.702339 3.30345,6.187329 2.40392,7.642789 -0.48497,0.78469 -0.29049,0.90514 0.58643,0.36318 0.97745,-0.6041 1.16813,-0.26064 0.74776,1.34687 -0.31034,1.18676 -0.20112,1.93332 0.24271,1.65901 0.44384,-0.2743 0.6537,1.15052 0.46635,3.16629 -0.225,2.42088 -1.28097,4.54163 -3.11071,6.24736 l -2.77008,2.58233 1.96047,-2.5 1.96048,-2.5 -2.18256,1.84396 c -1.20041,1.01417 -1.97204,2.39257 -1.71473,3.06309 0.2573,0.67053 -0.55279,2.09075 -1.80021,3.15605 -2.25321,1.924239 -2.25834,1.923829 -0.78527,-0.0631 1.36084,-1.83554 1.34376,-1.8912 -0.20779,-0.67689 -0.92981,0.72772 -1.47183,1.893119 -1.20449,2.589789 0.26734,0.69667 -0.20941,1.84387 -1.05944,2.54933 -0.85004,0.70546 -1.54552,0.94746 -1.54552,0.53777 0,-0.40969 -0.64825,-0.20689 -1.44056,0.45067 -0.79231,0.65756 -1.22183,1.76556 -0.95449,2.46223 0.26734,0.69667 -0.20941,1.84387 -1.05944,2.54933 -0.85003,0.70546 -1.54551,0.94746 -1.54551,0.53777 0,-0.40969 -0.64825,-0.20689 -1.44056,0.45067 -0.79231,0.65756 -1.21163,1.79214 -0.93183,2.52129 0.27981,0.72916 0.0281,1.62281 -0.55944,1.98591 -2.40719,1.48773 -0.77639,2.54213 3.93183,2.54213 3.8619,0 5,-0.35486 5,-1.55902 0,-0.85746 0.39919,-1.3123 0.8871,-1.01076 0.4879,0.30154 0.8254,-0.2344 0.75,-1.19098 -0.0758,-0.96193 0.45478,-1.61644 1.18723,-1.46446 0.72838,0.15112 1.09831,-0.0909 0.82206,-0.53791 -0.27624,-0.44698 1.09215,-2.59563 3.04088,-4.77478 1.94873,-2.17915 2.9288,-3.06209 2.17794,-1.96209 -1.25145,1.83334 -1.2203,1.8864 0.37378,0.63669 0.95644,-0.74982 1.52136,-1.71544 1.25536,-2.14583 -0.266,-0.43039 0.36238,-1.82731 1.39639,-3.10426 1.52047,-1.877698 2.15861,-2.090528 3.33665,-1.112838 0.80115,0.66489 1.81917,0.875288 2.26227,0.46756 0.4431,-0.40772 0.55616,0.271798 0.25125,1.510058 -0.35648,1.44766 -0.17446,2.01657 0.50987,1.59363 0.68197,-0.42148 0.86158,0.11733 0.5,1.5 -0.36157,1.38267 -0.18197,1.92148 0.5,1.5 0.68197,-0.42148 0.86158,0.11733 0.5,1.5 -0.36157,1.38267 -0.18197,1.92148 0.5,1.5 0.68197,-0.42148 0.86158,0.11733 0.5,1.5 -0.36157,1.38267 -0.18197,1.92148 0.5,1.5 0.68197,-0.42148 0.86158,0.11733 0.5,1.5 -0.31034,1.18676 -0.15623,1.90557 0.34248,1.59735 0.76922,-0.4754 1.24476,0.62226 1.1083,2.55823 -0.0662,0.93976 9.29541,-0.19131 10.29844,-1.24425 z m 20.66371,-2.11869 c -0.1896,-1.61383 0.0745,-2.60845 0.60555,-2.28026 0.54044,0.33401 0.72851,-0.53381 0.44129,-2.03628 -0.30628,-1.6022 -0.11223,-2.37838 0.5,-2 0.61224,0.37838 0.80628,-0.3978 0.5,-2 -0.28258,-1.47826 -0.0962,-2.36846 0.42808,-2.04445 0.51073,0.31565 0.91348,-0.61732 0.89499,-2.07328 l -0.0336,-2.647178 7.78924,0.31177 c 5.04625,0.20199 8.30178,-0.11358 9.24468,-0.89612 0.80048,-0.66434 2.35845,-0.97175 3.46213,-0.68313 1.27739,0.33404 1.76487,0.13345 1.34128,-0.55192 -0.42493,-0.68755 -0.0452,-0.83869 1.05056,-0.41819 1.15642,0.44376 1.48251,0.28071 1,-0.5 -0.47156,-0.763 -0.17287,-0.95008 0.87495,-0.54799 1.58432,0.60796 4.10413,-1.52474 4.31977,-3.65616 0.062,-0.61295 0.1813,-1.70352 0.26508,-2.42348 0.0838,-0.71996 0.59716,-1.03408 1.14086,-0.69806 0.58718,0.3629 0.72119,-0.0858 0.33006,-1.10503 -0.4205,-1.0958 -0.26936,-1.47549 0.41819,-1.05056 0.69678,0.43064 0.87758,-0.0959 0.51242,-1.49232 -0.36158,-1.38267 -0.18197,-1.92148 0.5,-1.5 0.67026,0.41425 0.87051,-0.0832 0.54089,-1.34363 -0.28788,-1.10076 -0.13341,-2.00138 0.34324,-2.00138 0.47665,0 0.86663,-2.8875 0.86663,-6.41667 0,-3.529163 -0.15,-6.266663 -0.33333,-6.08333 -0.18334,0.183333 -1.19584,-0.529167 -2.25,-1.583333 -1.05417,-1.054167 -2.61823,-1.916667 -3.47569,-1.916667 -0.85746,0 -1.34952,-0.3375 -1.09348,-0.75 0.45699,-0.736236 -25.7669,-0.53946 -27.97389,0.209908 -0.63412,0.215309 -0.92768,1.618766 -0.67172,3.211275 0.35611,2.215529 0.22122,2.503617 -0.6222,1.328817 -0.81734,-1.13846 -0.93643,-0.656407 -0.4941,2 0.44391,2.665928 0.32476,3.14254 -0.5,2 -0.82476,-1.142541 -0.94391,-0.665928 -0.5,2 0.44391,2.66593 0.32476,3.14254 -0.5,2 -0.82476,-1.14254 -0.94391,-0.66593 -0.5,2 0.44391,2.66593 0.32476,3.14254 -0.5,2 -0.82476,-1.14254 -0.94391,-0.66593 -0.5,2 0.44391,2.66593 0.32476,3.14254 -0.5,2 -0.82476,-1.14254 -0.94391,-0.66593 -0.5,2 0.44391,2.66593 0.32476,3.14254 -0.5,2 -0.82476,-1.14254 -0.94391,-0.66593 -0.5,2 0.44391,2.66593 0.32476,3.14254 -0.5,2 -0.82107,-1.13743 -0.92455,-0.67686 -0.42809,1.90549 0.42188,2.19449 0.29495,3.18316 -0.35694,2.78026 -0.62583,-0.38678 -0.82075,0.37336 -0.51111,1.99314 0.30628,1.602198 0.11223,2.378378 -0.5,1.999998 -0.61224,-0.37838 -0.80628,0.3978 -0.5,2 0.30628,1.6022 0.11223,2.37838 -0.5,2 -0.61224,-0.37838 -0.80628,0.3978 -0.5,2 0.30628,1.6022 0.11223,2.37838 -0.5,2 -0.61224,-0.37838 -0.80628,0.3978 -0.5,2 0.27529,1.4401 0.0978,2.36945 -0.39446,2.06523 -0.49225,-0.30423 -0.89499,0.64139 -0.89499,2.10137 0,2.61153 0.0891,2.64641 5.5,2.15451 5.36852,-0.48805 5.49196,-0.56842 5.16371,-3.36235 z m 28.83629,-19.015208 c 0,-0.20765 0.7875,-0.99515 1.75,-1.75 1.58606,-1.24387 1.62143,-1.2085 0.37756,0.37756 -1.30637,1.66575 -2.12756,2.19548 -2.12756,1.37244 z m -16.14659,-4.35326 c -3.7777,-0.30107 -4.75688,-0.7816 -5.23635,-2.56975 -0.84675,-3.15789 -0.7499,-4.89957 0.23848,-4.28871 0.47055,0.29082 0.63031,-0.64951 0.35501,-2.08961 -0.30628,-1.6022 -0.11223,-2.37838 0.5,-2 0.61224,0.37838 0.80628,-0.3978 0.5,-2 -0.32117,-1.68009 -0.12365,-2.38544 0.5512,-1.96835 0.64687,0.39978 0.86055,-0.0811 0.55509,-1.24915 -0.27315,-1.04453 0.01,-2.84515 0.62845,-4.001377 0.92367,-1.725892 2.06355,-2.102233 6.36739,-2.102233 7.19699,0 9.69181,1.884705 9.67201,7.3067 -0.0117,3.2095 -0.26057,3.84138 -1.06068,2.6933 -0.77246,-1.10841 -0.87108,-0.6189 -0.37775,1.87511 0.43148,2.18138 0.30908,3.15352 -0.34607,2.74862 -0.62164,-0.3842 -0.79544,0.20801 -0.44941,1.53126 0.3838,1.46765 0.19773,1.93122 -0.5818,1.44944 -0.71463,-0.44166 -0.94503,-0.18439 -0.61202,0.68342 0.67762,1.76583 -2.07691,4.12687 -3.66766,3.14373 -0.75808,-0.46851 -0.93618,-0.31645 -0.48479,0.41391 0.41132,0.66553 0.1591,1.07817 -0.59549,0.97426 -0.71996,-0.0991 -3.39999,-0.34689 -5.95561,-0.55057 z m 6.90099,-4.51918 c 2.60734,-2.78955 4.95643,-11.43917 3.50175,-12.89385 -0.55769,-0.55769 -2.83633,-1.25841 -5.06365,-1.557155 l -4.04966,-0.543175 -1.13544,4.37209 c -0.62449,2.40465 -1.55412,5.94709 -2.06584,7.87209 -1.32885,4.99887 -1.3282,5 2.88413,5 2.67759,0 4.4568,-0.67523 5.92871,-2.25 z M -12.75122,105.76515 c 1.24387,-1.58606 1.2085,-1.62143 -0.37756,-0.37756 -0.9625,0.75485 -1.75,1.54235 -1.75,1.75 0,0.82304 0.82119,0.29331 2.12756,-1.37244 z m -2.17437,-1.6936 c 0.87537,-1.05475 3.89733,-10.214578 4.03494,-12.230248 0.007,-0.0956 -3.5782,-0.32062 -7.96607,-0.5 -7.82247,-0.31979 -7.98745,-0.27743 -8.4658,2.17385 -1.72648,8.847208 -1.78161,10.243278 -0.43809,11.094188 2.30147,1.45764 11.49879,1.07227 12.83502,-0.53779 z m -6.95319,-15.431398 c 0,-0.48125 0.26848,-2.2174 0.59662,-3.8581 0.49143,-2.45715 0.22696,-3.07977 -1.5,-3.53138 -1.15314,-0.30156 -2.10736,-0.25291 -2.12048,0.1081 -0.0131,0.36101 -0.41573,2.34388 -0.89469,4.40638 -0.82016,3.53179 -0.73148,3.75 1.52386,3.75 1.31708,0 2.39469,-0.39375 2.39469,-0.875 z M 81.85039,73.910982 c -0.33229,-0.33229 -1.1948,-0.36781 -1.91667,-0.0789 -0.79773,0.31922 -0.56078,0.55618 0.60417,0.60416 1.05416,0.0434 1.64479,-0.19292 1.3125,-0.52522 z M -128.54042,55.464096 c -5.16521,-1.568912 -15.45459,-13.812671 -30.37516,-36.144689 -18.17259,-27.199382 -19.86045,-29.426022 -23.74491,-31.324385 -3.10802,-1.518918 -3.46431,-1.490939 -6.7321,0.528668 -1.89772,1.172855 -4.43085,3.563238 -5.62918,5.311963 -5.06988,7.3985 -9.58553,10.545807 -11.25503,7.844501 -1.12465,-1.819718 2.03176,-8.653567 6.07293,-13.14832 5.77101,-6.418751 12.64873,-9.37841 21.82509,-9.391891 9.58191,-0.01408 13.96517,1.726251 20.85748,8.281253 6.24621,5.940529 8.75166,9.552758 30.64252,44.178846 4.92319,7.787314 12.88617,14.91511 16.66275,14.91511 7.15117,0 14.21728,-6.685816 20.36988,-19.273579 5.1275,-10.490486 5.48055,-13.432753 3.02361,-25.198316 -2.30132,-11.0203 -2.66556,-20.51878 -0.85624,-22.328105 2.15238,-2.152382 6.77442,-1.379424 9.79127,1.637424 3.49537,3.495374 4.73572,10.31336 3.30303,18.156234 -4.38691,24.014944 -6.64117,32.641841 -9.79683,37.491817 -4.58553,7.047584 -12.13648,14.041819 -17.90394,16.583927 -5.54323,2.44328 -20.8028,3.535675 -26.25517,1.879542 z m 25.41465,-4.414102 c 2.88915,-1.345091 7.40004,-4.603195 10.0242,-7.240231 7.06869,-7.103388 10.18502,-13.124215 11.72868,-22.660117 0.73067,-4.513654 2.01051,-10.890409 2.8441,-14.170568 3.04582,-11.985246 2.63209,-19.635691 -1.27307,-23.540849 -6.62335,-6.623353 -8.34759,-1.521758 -5.1776,15.319268 2.74382,14.57697 2.6814,16.316327 -0.92079,25.657103 -5.78463,15.000055 -14.74847,24.100552 -23.73865,24.100552 -7.97887,0 -14.22002,-6.737936 -30.69983,-33.143497 -14.81001,-23.730038 -20.84359,-30.649187 -28.68834,-32.899032 -5.10062,-1.462839 -13.94975,-1.143402 -19.35607,0.698716 -5.6896,1.938641 -12.61981,8.392652 -14.35417,13.367845 -1.06191,3.046183 -0.40984,2.59185 6.18499,-4.309424 12.87398,-13.472193 14.82559,-12.211334 39.91174,25.785392 12.87107,19.495166 22.42809,31.645787 26.79046,34.060922 1.5927,0.881767 5.84889,1.377332 11.97134,1.393874 8.01239,0.02165 10.32257,-0.357294 14.75301,-2.419954 z m 46.24699,3.894562 c -8.92777,-2.438002 -11.83095,-7.076366 -11.95645,-19.102679 -0.0537,-5.143177 3.49879,-9.830237 8.49652,-11.210178 6.16652,-1.702658 7.48105,-0.673658 7.3464,5.750677 -0.0649,3.098027 0.40017,7.54075 1.03357,9.872718 1.2531,4.613501 3.67042,5.964575 8.84276,4.942324 1.50546,-0.297536 3.57492,-0.685266 4.59881,-0.861621 3.08131,-0.530728 4.29345,2.53066 2.24179,5.66189 -3.35023,5.113102 -12.2073,7.239681 -20.6034,4.946869 z m 16.53575,-3.860871 c 4.34259,-2.845376 3.12239,-4.243759 -3.29779,-3.779364 -4.57816,0.331154 -6.23996,0.02979 -8.08811,-1.466746 -2.73983,-2.218582 -4.52225,-9.943578 -3.59308,-15.572423 0.60719,-3.678322 0.55811,-3.75 -2.56766,-3.75 -2.29301,0 -4.02174,0.893926 -6.16432,3.187561 -2.84007,3.040311 -2.94561,3.467617 -2.28449,9.25 0.56215,4.916871 2.68848,11.507227 3.73538,11.577495 0.12338,0.0083 2.02432,0.690946 4.22432,1.517033 4.90631,1.842288 14.5389,1.327669 18.03575,-0.963556 z m 12.48481,4.359267 c -3.7584,-1.566003 -6.02056,-3.991136 -6.02056,-6.454299 0,-2.130989 0.47272,-2.242819 12.25,-2.897916 6.7375,-0.374766 13.825,-0.978954 15.75,-1.342639 l 3.5,-0.661245 -5,-0.698245 c -2.75,-0.384034 -7.925,-0.740177 -11.5,-0.791427 -3.575,-0.05125 -8.1875,-0.561825 -10.25,-1.13461 -3.25162,-0.903021 -3.75,-1.433881 -3.75,-3.994423 0,-5.11405 5.95571,-9.089448 17.87402,-11.930803 5.69618,-1.357982 15.74312,-0.832644 19.17208,1.002476 2.17869,1.166001 2.59769,4.931544 0.7539,6.775331 -0.66,0.66 -2.3475,1.223188 -3.75,1.251528 -2.25041,0.04548 -2.10842,0.234672 1.20866,1.610408 2.3466,0.973238 3.97382,2.416141 4.33137,3.840768 0.74342,2.961988 -1.79287,7.79348 -5.46309,10.40691 -5.15221,3.668697 -24.38642,6.984838 -29.10638,5.018186 z M -5.9177321,51.545845 C -3.3906282,50.979467 3.8008822,47.695368 5.1017938,42.592268 6.0851426,38.734875 -1.49823,36.130865 -11.94527,36.915727 c -4.71158,0.353969 -9.65921,0.854016 -10.99474,1.111216 -3.17257,0.610983 -4.401709,0.01305 -4.401709,-1.650656 0,-3.725281 16.822401,-6.670224 24.3140377,-4.697382 3.21287417,0.846076 4.9481334,0.809222 6.2249834,-0.467624 4.36563,-4.365628 -13.0863105,-6.257856 -24.3012231,-2.043632 -5.724471,2.151082 -10.195932,4.752761 -10.130068,8.15397 0.06194,3.198645 6.725598,3.100806 15.591028,3.676763 10.1736143,0.660945 15.14267315,-0.09251 15.94359452,2.186075 0.86223698,2.453029 -1.82660472,2.998775 -18.05699452,4.211907 -8.1125,0.606365 -14.471524,1.03925 -14.524163,1.405005 -0.342112,2.377087 2.823317,3.799015 5.293056,5.373888 2.909167,1.855082 13.608995,-0.957301 21.0697359,-2.629412 z M -6.87878,34.424164 c 4.26708,-0.08408 4.93958,-0.287849 3,-0.909012 -3.89171,-1.246343 -11.10017,-0.986698 -15.5,0.558301 l -4,1.404597 5.5,-0.472757 c 3.025,-0.260016 7.975,-0.521524 11,-0.581129 z M 28.20828,54.82315 C 26.33116,53.87955 23.07922,50.836732 20.98175,48.061333 11.55487,35.587562 9.12122,31.95639 9.12122,30.364644 c 0,-2.301816 4.69045,-5.849492 7.73373,-5.849492 5.90509,0 13.2676,5.725317 17.20352,13.377997 1.27832,2.485453 3.39038,5.520621 4.69348,6.744818 l 2.36927,2.225813 2.46753,-2.318121 c 1.35714,-1.274967 3.65782,-5.433101 5.11264,-9.240298 1.45481,-3.807197 3.57927,-7.792483 4.72103,-8.856192 2.53635,-2.362967 9.30756,-2.596778 12.40351,-0.428296 1.89918,1.330238 2.1325,2.37402 2.00199,8.956111 -0.12433,6.271201 0.20373,7.925745 2.07279,10.453787 4.39624,5.946225 2.21752,10.084381 -5.30938,10.084381 -4.44712,0 -8.76246,-2.877367 -10.45936,-6.974054 -1.5277,-3.688188 -2.00566,-3.728668 -5.08644,-0.430784 -6.19312,6.629566 -15.21869,9.537204 -20.83725,6.712836 z m 11.22868,-2.445596 c 1.20134,-0.625678 4.60918,-3.41019 7.57298,-6.187805 l 5.38871,-5.050207 1.86129,2.298589 c 1.0237,1.264224 1.86128,2.858026 1.86128,3.541782 0,2.729129 4.85126,6.535239 8.32981,6.535239 5.07565,0 6.36408,-2.142453 3.56512,-5.928248 -1.80157,-2.436754 -2.34164,-4.751686 -2.69959,-11.571538 -0.42573,-8.111217 -0.56962,-8.556047 -2.96183,-9.156456 -3.93297,-0.987113 -7.57053,0.795003 -9.23351,4.523694 -4.06677,9.118389 -7.65639,15.62173 -9.09522,16.477865 -3.02443,1.7996 -6.85311,-0.186917 -9.8767,-5.12455 C 28.23839,33.08322 26.09895,30.544437 22.19871,28.554682 17.26729,26.038863 16.99706,26.038377 13.81723,28.539632 l -2.5737,2.024475 5.51539,7.725525 c 8.65445,12.122485 12.04393,15.22552 16.63099,15.22552 2.12454,0 4.84571,-0.511919 6.04705,-1.137598 z m 42.41807,2.720583 c -2.6214,-0.705116 -4.90812,-1.462244 -5.08159,-1.682507 -2.56858,-3.261382 -3.65222,-6.072726 -3.65222,-9.475101 0,-6.355907 3.23949,-10.253044 12.4067,-14.925377 7.76277,-3.956517 7.96899,-4 18.97069,-4 10.01159,0 11.56681,0.249721 15.56959,2.5 l 4.44697,2.5 0.31433,11.18538 c 0.29844,10.620329 0.20148,11.26442 -1.91948,12.75 -4.26876,2.989953 -10.7888,1.755679 -10.7888,-2.042369 0,-2.906221 -0.0228,-2.907687 -4.66625,-0.299635 -3.64787,2.048885 -14.86706,4.921192 -18.83375,4.821767 -1.1,-0.02757 -4.14478,-0.627043 -6.76619,-1.332158 z M 96.55946,52.99214 c 2.16603,-0.351032 6.60903,-1.986455 9.87334,-3.634273 6.20571,-3.132632 7.30106,-2.971227 7.85374,1.157285 0.25379,1.895749 1.01397,2.57789 3.14515,2.822258 5.08546,0.583115 5.74859,-0.960329 5.2109,-12.128414 -0.2663,-5.531162 -0.83407,-10.406545 -1.26171,-10.834184 -0.42764,-0.427639 -3.69772,-1.525646 -7.26685,-2.440015 -14.02643,-3.593404 -33.16879,2.183844 -37.53401,11.327932 -1.8339,3.84158 -1.13051,9.334555 1.50017,11.71529 1.89789,1.71757 9.28583,3.461482 12.54103,2.960294 1.1,-0.169362 3.77221,-0.59514 5.93824,-0.946173 z M 85.12122,44.087732 c 0,-3.935119 13.79546,-10.811897 21.99383,-10.963515 13.55599,-0.2507 8.9505,7.193982 -6.7758,10.952946 -7.82012,1.869196 -15.21803,1.874334 -15.21803,0.01057 z m 13.58949,-2.129566 c 3.69247,-0.856343 8.5579,-2.505224 10.81205,-3.664181 l 4.09846,-2.107194 -2.70974,-0.738568 c -4.51347,-1.230197 -14.36889,1.940985 -21.79026,7.011464 -2.28309,1.559865 1.56983,1.358361 9.58949,-0.501521 z m 34.41051,13.332366 c -1.375,-0.710141 -3.4,-3.087614 -4.5,-5.283273 -1.80391,-3.600699 -2.03078,-6.364439 -2.31394,-28.18838 -0.21086,-16.251772 0.0469,-24.870585 0.78519,-26.25 2.18466,-4.082077 9.28733,-1.940064 14.94909,4.508326 2.75655,3.139536 3.13197,4.184986 2.62182,7.301083 -0.57885,3.535685 -2.48022,30.927526 -2.52156,36.326499 -0.0183,2.390599 0.39633,2.724141 3.7294,3 3.26382,0.270127 3.7913,0.669794 4.06858,3.082737 0.26945,2.344845 -0.21664,2.996001 -3.15215,4.222535 -5.3126,2.219746 -10.84425,2.738033 -13.66643,1.280473 z m 11.80179,-2.965153 c 4.05308,-1.226946 3.6802,-3.198524 -0.68614,-3.627862 -1.77668,-0.174699 -3.48755,-0.987958 -3.80194,-1.807242 -0.31439,-0.819284 0.0118,-10.997422 0.72478,-22.618084 l 1.29641,-21.128476 -3.72551,-3.220445 c -4.37053,-3.778023 -8.4965,-5.126827 -9.83802,-3.216108 -0.53529,0.762402 -0.67901,11.28674 -0.34456,25.23101 0.47878,19.961721 0.86352,24.511393 2.32349,27.476312 2.41903,4.912565 5.39954,5.530005 14.05149,2.910895 z M -66.36488,12.119964 c -5.29498,-5.294979 -1.55026,-12.119607 7.30157,-13.306887 5.67762,-0.761529 9.18453,1.543962 9.18453,6.038037 0,4.440173 -4.39985,8.639726 -9.8124,9.365701 -3.42652,0.459593 -4.43371,0.143136 -6.6737,-2.096851 z m 10.01884,-1.625048 c 3.60456,-2.227739 4.80195,-4.349881 3.95682,-7.012671 -1.04331,-3.287153 -8.22978,-3.071188 -12.96262,0.389546 -1.66645,1.218542 -1.73547,1.725701 -0.60598,4.452538 0.73282,1.769193 2.18956,3.256132 3.42686,3.497909 1.1837,0.231302 2.32406,0.481832 2.53415,0.556732 0.21008,0.0749 1.85293,-0.772924 3.65077,-1.884054 z"
         id="path3455"
         inkscape:label="linhas-externas"
         sodipodi:nodetypes="sssssssscccssssssssssscssscccccsscsssssscsscssssssssssssssssssssssssssssssssssssssssssssssssssssssssssssssssssssssssssssssssssssssssssscssssssscsssssssssssssssssssssscssscccsssssssssssssssssssssssscssssssssssccscccccccsscsscssssssssssssssscssssscssssssssscssscsssssssssssccssssssssssssscccsssscsssssssssssssssssssssscsssssssssssssssssssssssssscsssssssssssscccssscssssssssssssssscccssssssssscssssssssssssssssssssssssssssssssssssssssssssssssssssssscssssssssssssssssssssssssssssscccsssssssssssssscsssssssssssssssssssssssssssssssscssssssssssssssssssssssssssssssssssssssssssssssssssssssssssssscssssssssssssssscssssssssscssssssssssssssssssssssssssssssssssssssssssssssssssssssssssssssssssssssssssscsssssssssssssssssssssssssssssscsssssssscsssssssssssscssssssssssscssssssssscssssssssssssssssssssssscsssssscssssssssssccsssssssssssssssss" />
    </g>
  </g>
  <metadata
     id="metadata22">
    <rdf:RDF>
      <cc:Work
         rdf:about="">
        <dc:title>Visual Regexp</dc:title>
        <dc:date>11/10/2022</dc:date>
        <dc:creator>
          <cc:Agent>
            <dc:title>Braulio Henrique Marques Souto</dc:title>
          </cc:Agent>
        </dc:creator>
        <dc:description>graphical front-end to write/debug regular expressions in Perl</dc:description>
      </cc:Work>
    </rdf:RDF>
  </metadata>
</svg>
